<?xml version="1.0" standalone="no"?>
<!DOCTYPE svg PUBLIC "-//W3C//DTD SVG 20010904//EN"
 "http://www.w3.org/TR/2001/REC-SVG-20010904/DTD/svg10.dtd">
<svg version="1.0" xmlns="http://www.w3.org/2000/svg"
 width="512.000000pt" height="512.000000pt" viewBox="0 0 512.000000 512.000000"
 preserveAspectRatio="xMidYMid meet">

<g transform="translate(0.000000,512.000000) scale(0.100000,-0.100000)"
fill="#000000" stroke="none">
<path d="M2285 4774 c-160 -28 -355 -102 -490 -187 -196 -122 -388 -319 -493
-507 l-31 -56 48 -110 c58 -133 113 -235 197 -366 52 -80 68 -98 88 -98 30 0
56 24 56 53 0 47 35 157 73 232 31 60 62 100 122 160 168 166 378 248 635 248
227 -1 378 -59 520 -202 137 -137 200 -286 200 -471 0 -235 -133 -418 -396
-546 -67 -33 -144 -58 -285 -94 -107 -26 -218 -58 -248 -70 -72 -28 -153 -83
-185 -125 -83 -109 -88 -199 -27 -520 107 -566 146 -749 161 -768 22 -27 273
-76 391 -77 95 0 138 11 188 48 72 53 79 141 25 289 -129 348 -120 561 30 707
60 59 182 126 366 201 301 123 408 199 516 365 212 328 195 822 -40 1214 -215
358 -578 614 -965 680 -116 20 -344 20 -456 0z m401 -109 c255 -45 489 -171
689 -370 250 -248 376 -541 376 -865 0 -267 -89 -469 -271 -617 -66 -54 -234
-143 -438 -232 -151 -66 -213 -104 -287 -176 -106 -103 -155 -225 -155 -390 0
-125 11 -192 56 -321 37 -111 40 -128 22 -186 -25 -86 -98 -110 -245 -83 l-90
17 -42 201 c-65 313 -112 583 -118 684 -7 116 8 163 76 226 75 70 96 79 449
181 68 20 147 48 175 62 215 108 383 297 443 499 25 81 25 265 1 355 -74 278
-297 492 -592 569 -177 47 -345 50 -527 11 -186 -40 -324 -114 -448 -239 -95
-96 -142 -173 -176 -290 l-21 -73 -36 43 c-48 59 -141 209 -179 288 l-30 63
48 72 c27 39 96 118 154 176 205 207 465 344 745 394 108 19 312 20 421 1z"/>
<path d="M2445 1079 c-79 -19 -156 -96 -161 -162 -1 -18 -14 -63 -29 -102 -39
-99 -39 -200 -2 -278 88 -178 305 -253 484 -167 190 91 256 266 168 442 -91
180 -305 304 -460 267z m184 -145 c64 -32 142 -106 171 -164 64 -124 21 -243
-113 -311 -140 -72 -328 5 -371 152 -21 69 -20 94 4 172 20 65 75 138 125 165
38 21 127 14 184 -14z"/>
</g>
</svg>
